# This file uses centimeters as units for non-parametric coordinates.

mtllib caisses.mtl
g default
v 38.060335 2.592492 16.106159
v 70.272655 2.592492 16.106159
v 38.060335 34.804812 16.106159
v 70.272655 34.804812 16.106159
v 38.060335 34.804812 -16.106159
v 70.272655 34.804812 -16.106159
v 38.060335 2.592492 -16.106159
v 70.272655 2.592492 -16.106159
v 40.860334 5.392490 16.106159
v 67.472651 5.392490 16.106159
v 67.472651 32.004813 16.106159
v 40.860334 32.004813 16.106159
v 40.860334 34.804812 13.306159
v 67.472651 34.804812 13.306159
v 67.472651 34.804812 -13.306159
v 40.860334 34.804812 -13.306159
v 40.860334 32.004813 -16.106159
v 67.472651 32.004813 -16.106159
v 67.472651 5.392490 -16.106159
v 40.860334 5.392490 -16.106159
v 40.860334 2.592492 -13.306159
v 67.472651 2.592492 -13.306159
v 67.472651 2.592492 13.306159
v 40.860334 2.592492 13.306159
v 70.272655 5.392490 -13.306159
v 70.272655 5.392490 13.306159
v 70.272655 32.004813 -13.306159
v 70.272655 32.004813 13.306159
v 38.060335 5.392490 -13.306159
v 38.060335 5.392490 13.306159
v 38.060335 32.004813 13.306159
v 38.060335 32.004813 -13.306159
v 40.860334 5.392490 13.506158
v 67.472651 5.392490 13.506158
v 67.472651 32.004813 13.506158
v 40.860334 32.004813 13.506158
v 40.860334 32.204811 13.306159
v 67.472651 32.204811 13.306159
v 67.472651 32.204811 -13.306159
v 40.860334 32.204811 -13.306159
v 40.860334 32.004813 -13.506158
v 67.472651 32.004813 -13.506158
v 67.472651 5.392490 -13.506158
v 40.860334 5.392490 -13.506158
v 40.860334 5.192492 -13.306159
v 67.472651 5.192492 -13.306159
v 67.472651 5.192492 13.306159
v 40.860334 5.192492 13.306159
v 67.672654 5.392490 -13.306159
v 67.672654 5.392490 13.306159
v 67.672654 32.004813 -13.306159
v 67.672654 32.004813 13.306159
v 40.660332 5.392490 -13.306159
v 40.660332 5.392490 13.306159
v 40.660332 32.004813 13.306159
v 40.660332 32.004813 -13.306159
vt 0.468377 0.750170
vt 0.666910 0.750169
vt 0.666910 0.948702
vt 0.468378 0.948702
vt 0.678699 0.751528
vt 0.877232 0.751528
vt 0.877232 0.950061
vt 0.678699 0.950061
vt 0.471305 0.260930
vt 0.470496 0.020621
vt 0.491455 0.041439
vt 0.492123 0.239971
vt 0.710804 0.019812
vt 0.689986 0.040770
vt 0.711614 0.260120
vt 0.690655 0.239302
vt 0.708108 0.270528
vt 0.948418 0.270528
vt 0.927529 0.291417
vt 0.728997 0.291417
vt 0.948418 0.510838
vt 0.927529 0.489950
vt 0.708108 0.510838
vt 0.728997 0.489950
vt 0.732284 0.195254
vt 0.930816 0.194585
vt 0.930881 0.213981
vt 0.732349 0.214650
vt 0.930804 0.191282
vt 0.732273 0.191950
vt 0.732208 0.172554
vt 0.930739 0.171885
vt 0.735804 0.087465
vt 0.925452 0.086826
vt 0.925515 0.105355
vt 0.735866 0.105994
vt 0.193505 0.028319
vt 0.193504 0.226852
vt 0.174108 0.226852
vt 0.174108 0.028319
vt 0.915249 0.947137
vt 0.915250 0.748604
vt 0.934646 0.748604
vt 0.934646 0.947137
vt 0.735877 0.109149
vt 0.925526 0.108511
vt 0.925588 0.127039
vt 0.735939 0.127678
vt 0.596979 0.484532
vt 0.596979 0.309094
vt 0.614119 0.309094
vt 0.614119 0.484532
vt 0.690114 0.078591
vt 0.491582 0.079260
vt 0.491517 0.059863
vt 0.690048 0.059195
vt 0.048784 0.945453
vt 0.048784 0.746920
vt 0.247317 0.746920
vt 0.247317 0.945453
vt 0.725813 0.519499
vt 0.941735 0.519499
vt 0.941735 0.735422
vt 0.725813 0.735422
vt 0.220389 0.264078
vt 0.220389 0.023768
vt 0.241278 0.044656
vt 0.241278 0.243189
vt 0.460699 0.023768
vt 0.439811 0.044656
vt 0.460699 0.264078
vt 0.439811 0.243189
vt 0.453834 0.273879
vt 0.694144 0.273879
vt 0.673255 0.294767
vt 0.474722 0.294767
vt 0.694144 0.514189
vt 0.673255 0.493301
vt 0.453834 0.514189
vt 0.474722 0.493300
vt 0.536801 0.484532
vt 0.536801 0.309094
vt 0.553941 0.309094
vt 0.553941 0.484532
vt 0.491746 0.127963
vt 0.690278 0.127294
vt 0.690343 0.146691
vt 0.491811 0.147359
vt 0.516742 0.484532
vt 0.516742 0.309094
vt 0.533882 0.309094
vt 0.533882 0.484532
vt 0.491669 0.105263
vt 0.690201 0.104594
vt 0.690266 0.123991
vt 0.491735 0.124659
vt 0.491822 0.150663
vt 0.690354 0.149994
vt 0.690419 0.169391
vt 0.491888 0.170059
vt 0.491899 0.173363
vt 0.690431 0.172694
vt 0.690496 0.192091
vt 0.491964 0.192759
vt 0.690190 0.101291
vt 0.491658 0.101960
vt 0.491593 0.082563
vt 0.690125 0.081895
vt 0.930957 0.236681
vt 0.732426 0.237350
vt 0.732360 0.217954
vt 0.930892 0.217285
vt 0.496411 0.524806
vt 0.712334 0.524806
vt 0.712334 0.740729
vt 0.496411 0.740729
vt 0.257198 0.752060
vt 0.455731 0.752059
vt 0.455732 0.950592
vt 0.257199 0.950593
vt 0.711614 0.260120
vt 0.710804 0.019812
vt 0.731763 0.040630
vt 0.732432 0.239162
vt 0.951113 0.019002
vt 0.930295 0.039961
vt 0.951922 0.259311
vt 0.930964 0.238493
vt 0.204234 0.523185
vt 0.204234 0.282875
vt 0.225123 0.303764
vt 0.225123 0.502297
vt 0.444544 0.282875
vt 0.423656 0.303764
vt 0.444544 0.523185
vt 0.423656 0.502297
vt 0.690572 0.214791
vt 0.492040 0.215459
vt 0.491975 0.196062
vt 0.690507 0.195394
vt 0.574001 0.309094
vt 0.574001 0.484532
vt 0.556861 0.484532
vt 0.556861 0.309094
vt 0.925338 0.068641
vt 0.735689 0.069280
vt 0.735627 0.050751
vt 0.925276 0.050112
vt 0.492052 0.218762
vt 0.690583 0.218094
vt 0.690649 0.237491
vt 0.492117 0.238159
vt 0.911946 0.748604
vt 0.911946 0.947137
vt 0.892549 0.947137
vt 0.892550 0.748604
vt 0.634179 0.309094
vt 0.634179 0.484532
vt 0.617039 0.484532
vt 0.617039 0.309094
vt 0.576920 0.484532
vt 0.576920 0.309094
vt 0.594060 0.309094
vt 0.594060 0.484532
vt 0.930728 0.168582
vt 0.732196 0.169250
vt 0.732131 0.149854
vt 0.930663 0.149185
vn 0.000000 0.000000 1.000000
vn 0.000000 0.000000 1.000000
vn 0.000000 0.000000 1.000000
vn 0.000000 0.000000 1.000000
vn 0.000000 1.000000 0.000000
vn 0.000000 1.000000 0.000000
vn 0.000000 1.000000 0.000000
vn 0.000000 1.000000 0.000000
vn 0.000000 0.000000 -1.000000
vn 0.000000 0.000000 -1.000000
vn 0.000000 0.000000 -1.000000
vn 0.000000 0.000000 -1.000000
vn 0.000000 -1.000000 0.000000
vn 0.000000 -1.000000 0.000000
vn 0.000000 -1.000000 0.000000
vn 0.000000 -1.000000 0.000000
vn 1.000000 0.000000 0.000000
vn 1.000000 0.000000 0.000000
vn 1.000000 0.000000 0.000000
vn 1.000000 0.000000 0.000000
vn -1.000000 0.000000 0.000000
vn -1.000000 0.000000 0.000000
vn -1.000000 0.000000 0.000000
vn -1.000000 0.000000 0.000000
vn 0.000000 0.000000 1.000000
vn 0.000000 0.000000 1.000000
vn 0.000000 0.000000 1.000000
vn 0.000000 0.000000 1.000000
vn 0.000000 0.000000 1.000000
vn 0.000000 0.000000 1.000000
vn 0.000000 0.000000 1.000000
vn 0.000000 0.000000 1.000000
vn 0.000000 0.000000 1.000000
vn 0.000000 0.000000 1.000000
vn 0.000000 0.000000 1.000000
vn 0.000000 0.000000 1.000000
vn 0.000000 0.000000 1.000000
vn 0.000000 0.000000 1.000000
vn 0.000000 0.000000 1.000000
vn 0.000000 0.000000 1.000000
vn 0.000000 1.000000 0.000000
vn 0.000000 1.000000 0.000000
vn 0.000000 1.000000 0.000000
vn 0.000000 1.000000 0.000000
vn 0.000000 1.000000 0.000000
vn 0.000000 1.000000 -0.000000
vn 0.000000 1.000000 -0.000000
vn 0.000000 1.000000 0.000000
vn 0.000000 1.000000 -0.000000
vn 0.000000 1.000000 -0.000000
vn 0.000000 0.000000 -1.000000
vn 0.000000 0.000000 -1.000000
vn 0.000000 0.000000 -1.000000
vn 0.000000 0.000000 -1.000000
vn 0.000000 0.000000 -1.000000
vn 0.000000 0.000000 -1.000000
vn 0.000000 0.000000 -1.000000
vn 0.000000 0.000000 -1.000000
vn 0.000000 -1.000000 0.000000
vn 0.000000 -1.000000 0.000000
vn 0.000000 -1.000000 0.000000
vn 0.000000 -1.000000 0.000000
vn 0.000000 -1.000000 -0.000000
vn 0.000000 -1.000000 -0.000000
vn 0.000000 -1.000000 -0.000000
vn 0.000000 -1.000000 -0.000000
vn 1.000000 0.000000 0.000000
vn 1.000000 0.000000 0.000000
vn 1.000000 0.000000 0.000000
vn 1.000000 0.000000 0.000000
vn 1.000000 -0.000000 0.000000
vn 1.000000 -0.000000 0.000000
vn 1.000000 -0.000000 0.000000
vn 1.000000 -0.000000 0.000000
vn -1.000000 -0.000000 0.000000
vn -1.000000 -0.000000 0.000000
vn -1.000000 -0.000000 0.000000
vn -1.000000 -0.000000 0.000000
vn -1.000000 0.000000 0.000000
vn -1.000000 0.000000 0.000000
vn -1.000000 0.000000 0.000000
vn -1.000000 0.000000 0.000000
vn 0.000000 1.000000 0.000000
vn 0.000000 1.000000 0.000000
vn 0.000000 1.000000 0.000000
vn 0.000000 1.000000 0.000000
vn -1.000000 0.000000 0.000000
vn -1.000000 0.000000 0.000000
vn -1.000000 0.000000 0.000000
vn -1.000000 0.000000 0.000000
vn 0.000000 -1.000000 0.000000
vn 0.000000 -1.000000 0.000000
vn 0.000000 -1.000000 0.000000
vn 0.000000 -1.000000 0.000000
vn 1.000000 0.000000 0.000000
vn 1.000000 0.000000 0.000000
vn 1.000000 0.000000 0.000000
vn 1.000000 0.000000 0.000000
vn 0.000000 0.000000 -1.000000
vn 0.000000 0.000000 -1.000000
vn 0.000000 0.000000 -1.000000
vn 0.000000 0.000000 -1.000000
vn -1.000000 0.000000 0.000000
vn -1.000000 0.000000 0.000000
vn -1.000000 0.000000 0.000000
vn -1.000000 0.000000 0.000000
vn 0.000000 0.000000 1.000000
vn 0.000000 0.000000 1.000000
vn 0.000000 0.000000 1.000000
vn 0.000000 0.000000 1.000000
vn 1.000000 0.000000 0.000000
vn 1.000000 0.000000 0.000000
vn 1.000000 0.000000 0.000000
vn 1.000000 0.000000 0.000000
vn 0.000000 -1.000000 0.000000
vn 0.000000 -1.000000 0.000000
vn 0.000000 -1.000000 0.000000
vn 0.000000 -1.000000 0.000000
vn -1.000000 0.000000 0.000000
vn -1.000000 0.000000 0.000000
vn -1.000000 0.000000 0.000000
vn -1.000000 0.000000 0.000000
vn 0.000000 1.000000 0.000000
vn 0.000000 1.000000 0.000000
vn 0.000000 1.000000 0.000000
vn 0.000000 1.000000 0.000000
vn 1.000000 0.000000 0.000000
vn 1.000000 0.000000 0.000000
vn 1.000000 0.000000 0.000000
vn 1.000000 0.000000 0.000000
vn 0.000000 0.000000 1.000000
vn 0.000000 0.000000 1.000000
vn 0.000000 0.000000 1.000000
vn 0.000000 0.000000 1.000000
vn -1.000000 0.000000 0.000000
vn -1.000000 0.000000 0.000000
vn -1.000000 0.000000 0.000000
vn -1.000000 0.000000 0.000000
vn 0.000000 0.000000 -1.000000
vn 0.000000 0.000000 -1.000000
vn 0.000000 0.000000 -1.000000
vn 0.000000 0.000000 -1.000000
vn 1.000000 0.000000 0.000000
vn 1.000000 0.000000 0.000000
vn 1.000000 0.000000 0.000000
vn 1.000000 0.000000 0.000000
vn 0.000000 1.000000 0.000000
vn 0.000000 1.000000 0.000000
vn 0.000000 1.000000 0.000000
vn 0.000000 1.000000 0.000000
vn 0.000000 0.000000 1.000000
vn 0.000000 0.000000 1.000000
vn 0.000000 0.000000 1.000000
vn 0.000000 0.000000 1.000000
vn 0.000000 -1.000000 0.000000
vn 0.000000 -1.000000 0.000000
vn 0.000000 -1.000000 0.000000
vn 0.000000 -1.000000 0.000000
vn 0.000000 0.000000 -1.000000
vn 0.000000 0.000000 -1.000000
vn 0.000000 0.000000 -1.000000
vn 0.000000 0.000000 -1.000000
vn 0.000000 1.000000 0.000000
vn 0.000000 1.000000 0.000000
vn 0.000000 1.000000 0.000000
vn 0.000000 1.000000 0.000000
vn 0.000000 0.000000 -1.000000
vn 0.000000 0.000000 -1.000000
vn 0.000000 0.000000 -1.000000
vn 0.000000 0.000000 -1.000000
vn 0.000000 -1.000000 0.000000
vn 0.000000 -1.000000 0.000000
vn 0.000000 -1.000000 0.000000
vn 0.000000 -1.000000 0.000000
vn 0.000000 0.000000 1.000000
vn 0.000000 0.000000 1.000000
vn 0.000000 0.000000 1.000000
vn 0.000000 0.000000 1.000000
s off
g pCube1
usemtl initialShadingGroup
f 33/113/1 34/114/2 35/115/3 36/116/4
f 37/57/5 38/58/6 39/59/7 40/60/8
f 41/117/9 42/118/10 43/119/11 44/120/12
f 45/61/13 46/62/14 47/63/15 48/64/16
f 50/1/17 49/2/18 51/3/19 52/4/20
f 53/5/21 54/6/22 55/7/23 56/8/24
f 1/121/25 2/122/26 10/123/27 9/124/28
f 2/122/29 4/125/30 11/126/31 10/123/32
f 4/125/33 3/127/34 12/128/35 11/126/36
f 3/127/37 1/121/38 9/124/39 12/128/40
s 1
f 3/65/41 4/66/42 14/67/43 13/68/44
f 4/66/45 6/69/46 15/70/47 14/67/48
f 6/69/46 5/71/49 16/72/50 15/70/47
f 5/71/49 3/65/41 13/68/44 16/72/50
s 3
f 5/129/51 6/130/52 18/131/53 17/132/54
f 6/130/52 8/133/55 19/134/56 18/131/53
f 8/133/55 7/135/57 20/136/58 19/134/56
f 7/135/57 5/129/51 17/132/54 20/136/58
s 4
f 7/73/59 8/74/60 22/75/61 21/76/62
f 8/74/60 2/77/63 23/78/64 22/75/61
f 2/77/63 1/79/65 24/80/66 23/78/64
f 1/79/65 7/73/59 21/76/62 24/80/66
s 5
f 2/9/67 8/10/68 25/11/69 26/12/70
f 8/10/68 6/13/71 27/14/72 25/11/69
f 6/13/71 4/15/73 28/16/74 27/14/72
f 4/15/73 2/9/67 26/12/70 28/16/74
s 6
f 7/17/75 1/18/76 30/19/77 29/20/78
f 1/18/76 3/21/79 31/22/80 30/19/77
f 3/21/79 5/23/81 32/24/82 31/22/80
f 5/23/81 7/17/75 29/20/78 32/24/82
s off
f 9/81/83 10/82/84 34/83/85 33/84/86
f 10/25/87 11/26/88 35/27/89 34/28/90
f 11/85/91 12/86/92 36/87/93 35/88/94
f 12/29/95 9/30/96 33/31/97 36/32/98
f 13/137/99 14/138/100 38/139/101 37/140/102
f 14/33/103 15/34/104 39/35/105 38/36/106
f 15/141/107 16/142/108 40/143/109 39/144/110
f 16/37/111 13/38/112 37/39/113 40/40/114
f 17/89/115 18/90/116 42/91/117 41/92/118
f 18/41/119 19/42/120 43/43/121 42/44/122
f 19/93/123 20/94/124 44/95/125 43/96/126
f 20/45/127 17/46/128 41/47/129 44/48/130
f 21/145/131 22/146/132 46/147/133 45/148/134
f 22/49/135 23/50/136 47/51/137 46/52/138
f 23/149/139 24/150/140 48/151/141 47/152/142
f 24/53/143 21/54/144 45/55/145 48/56/146
f 26/97/147 25/98/148 49/99/149 50/100/150
f 25/153/151 27/154/152 51/155/153 49/156/154
f 27/101/155 28/102/156 52/103/157 51/104/158
f 28/157/159 26/158/160 50/159/161 52/160/162
f 29/105/163 30/106/164 54/107/165 53/108/166
f 30/161/167 31/162/168 55/163/169 54/164/170
f 31/109/171 32/110/172 56/111/173 55/112/174
f 32/165/175 29/166/176 53/167/177 56/168/178
