# This file uses centimeters as units for non-parametric coordinates.

mtllib glaçon 3.mtl
g default
v 133.319430 35.678923 19.498461
v 135.648331 -1.362911 20.868837
v 130.706652 5.794673 19.961992
v 131.721164 -1.840115 7.706726
v 188.621789 39.931640 -6.082991
v 144.734680 61.446091 -13.832025
v 132.417912 39.639807 -12.681143
v 188.631777 35.409941 13.502607
v 188.157192 20.129342 22.982572
v 183.970732 39.654605 17.035324
v 194.589248 -2.497862 15.162888
v 183.539737 -2.518607 30.161412
v 188.946498 1.263154 29.712410
v 186.114453 35.917896 -18.333186
v 182.585002 49.262816 -13.559177
v 185.628749 45.383625 -12.450598
v 141.280198 46.103888 19.498461
v 148.194020 58.052466 8.125822
v 149.628968 59.279935 -19.498460
v 148.169249 61.850533 -16.797287
v 176.824153 50.517544 -18.986337
v 178.460132 52.025992 -16.529116
v 181.852689 37.495742 19.498461
v 183.970471 39.654605 17.035571
v 161.387797 50.547416 17.035574
v 160.545410 47.555411 19.498463
v 166.914049 54.944202 -19.177948
v 167.430461 56.929891 -16.629452
v 168.453569 -2.461809 -29.238979
v 172.972626 44.784400 17.035574
v 172.960452 44.804176 16.960307
v 183.569613 -2.461809 -29.213467
v 190.435273 -2.467147 -22.635679
v 182.712480 17.046428 -21.263062
v 187.311351 30.446175 -18.177204
v 188.562037 32.079760 -12.350528
v 188.430782 23.908662 -8.994312
v 188.562286 22.040667 -12.113266
v 189.408201 20.908712 -13.109067
v 137.841766 6.292887 -21.805260
v 136.840968 -2.461809 -23.099666
v 132.432247 -2.337330 -16.274283
v 136.228420 24.479547 -20.636379
v 130.909771 14.825247 -15.171218
v 131.562183 29.317622 -16.790392
v 135.440989 29.076143 -20.548449
vt 0.778787 0.715967
vt 0.204534 0.102484
vt 0.201352 0.911913
vt 0.438224 0.676255
vt 0.438278 0.932237
vt 0.349402 0.849024
vt 0.334963 0.943458
vt 0.629603 0.950705
vt 0.351564 0.714256
vt 0.132628 0.860764
vt 0.176139 0.348269
vt 0.172337 0.494112
vt 0.156161 0.237245
vt 0.166607 0.621181
vt 0.115558 0.138438
vt 0.193455 0.418489
vt 0.402659 0.465985
vt 0.192330 0.490889
vt 0.248888 0.565831
vt 0.377557 0.585116
vt 0.398183 0.573438
vt 0.937701 0.693252
vt 0.386294 0.913685
vt 0.671330 0.376616
vt 0.399299 0.803900
vt 0.417599 0.575453
vt 0.195802 0.350514
vt 0.218425 0.315115
vt 0.382403 0.376906
vt 0.376568 0.351954
vt 0.338051 0.323443
vt 0.374978 0.277771
vt 0.411706 0.267537
vt 0.547112 0.292156
vt 0.195803 0.350518
vt 0.421572 0.079529
vt 0.377449 0.217446
vt 0.370783 0.225169
vt 0.351488 0.237084
vt 0.613402 0.361157
vt 0.401646 0.401830
vt 0.436781 0.188911
vt 0.533826 0.062179
vt 0.193926 0.418556
vt 0.399662 0.773221
vt 0.370345 0.772735
vt 0.797995 0.089755
vt 0.819086 0.188727
vt 0.826498 0.213400
vt 0.374624 0.963253
vt 0.962640 0.659748
vt 0.977304 0.538065
vt 0.548266 0.184084
vt 0.704177 0.711787
vt 0.470762 0.070859
vt 0.533713 0.264254
vt 0.673340 0.676523
vt 0.670396 0.483338
vt 0.420337 0.465400
vt 0.420017 0.401859
vt 0.657991 0.698615
vt 0.700122 0.812982
vt 0.685184 0.911793
vt 0.769029 0.388661
vt 0.413004 0.299450
vt 0.157883 0.696417
vt 0.103972 0.106120
vt 0.731906 0.410081
vt 0.459750 0.649589
vt 0.567461 0.659668
vt 0.964094 0.470099
vt 0.123124 0.909195
vt 0.474648 0.959451
vt 0.796738 0.040181
vt 0.617031 0.055473
vn -0.006164 -0.999959 0.006604
vn -0.009830 -0.999951 0.001005
vn -0.011224 -0.999873 0.011336
vn -0.011644 -0.999927 -0.003343
vn -0.033029 -0.998393 0.046052
vn -0.998558 0.019856 0.049879
vn -0.995861 -0.086560 -0.027734
vn -0.999243 -0.012612 -0.036798
vn -0.995402 0.087628 0.038672
vn -0.997663 0.055394 0.039988
vn -0.999165 0.039109 -0.011831
vn 0.110422 0.233884 0.965974
vn 0.071344 0.254999 0.964306
vn 0.071610 0.254857 0.964323
vn -0.109877 0.103868 0.988503
vn 0.031222 0.229551 0.972796
vn -0.140044 0.081394 0.986794
vn -0.171680 0.048706 0.983948
vn -0.171183 0.048360 0.984052
vn -0.141450 0.027716 0.989557
vn 0.432114 0.868730 0.242046
vn 0.328608 0.921453 0.207221
vn 0.398928 0.885174 0.239423
vn 0.317885 0.925693 0.205040
vn 0.209083 0.968944 0.132032
vn 0.225476 0.895670 0.383323
vn -0.134447 0.182280 -0.974011
vn -0.188041 0.164655 -0.968261
vn -0.177301 0.158403 -0.971325
vn -0.053834 0.123657 -0.990864
vn -0.001472 0.049298 -0.998783
vn -0.650314 0.332855 -0.682861
vn -0.646817 0.327930 -0.688542
vn -0.648914 0.333453 -0.683900
vn -0.639729 0.324565 -0.696710
vn 0.731822 0.658961 0.173800
vn 0.734463 0.656437 0.172207
vn 0.748379 0.643178 0.162021
vn 0.759204 0.632110 0.155070
vn 0.792145 0.594778 0.136912
vn 0.999476 0.008399 -0.031264
vn 0.993242 0.023539 -0.113648
vn 0.945688 0.051699 -0.320938
vn 0.943543 0.204917 -0.260262
vn 0.943543 0.204917 -0.260262
vn 0.684924 0.152425 0.712493
vn 0.678132 0.356435 0.642722
vn 0.680541 0.150484 0.717090
vn 0.997928 0.015382 0.062468
vn 0.998536 0.040500 0.035854
vn 0.990182 0.087825 -0.108747
vn 0.972741 0.231506 0.013404
vn 0.925005 0.352921 0.140758
vn 0.546998 -0.734316 0.401962
vn 0.984916 0.056723 0.163469
vn 0.968551 0.247025 0.029787
vn 0.999744 0.008756 -0.020876
vn -0.809605 -0.525939 0.260629
vn -0.809605 -0.525939 0.260629
vn -0.809605 -0.525939 0.260629
vn -0.791062 0.604075 0.096515
vn -0.801604 0.589013 0.102444
vn -0.831132 0.531207 0.164437
vn -0.824262 0.548802 0.139316
vn -0.846712 0.489277 0.209014
vn -0.066327 0.696275 0.714704
vn -0.022445 0.685867 0.727380
vn -0.037980 0.688902 0.723858
vn -0.066327 0.696275 0.714704
vn 0.685571 0.409321 -0.602037
vn 0.684751 0.393147 -0.613637
vn 0.685545 0.405420 -0.604700
vn 0.679734 0.332014 -0.654009
vn 0.692638 0.365820 -0.621633
vn 0.246578 0.739486 -0.626387
vn 0.244687 0.740259 -0.626215
vn 0.323029 0.705199 -0.631147
vn 0.323029 0.705199 -0.631147
vn 0.276297 0.592358 0.756817
vn 0.281442 0.594465 0.753260
vn 0.278192 0.593997 0.754836
vn 0.200152 0.757458 -0.621447
vn 0.200152 0.757458 -0.621447
vn 0.158548 0.163389 -0.973738
vn 0.301893 0.129468 -0.944510
vn 0.417412 0.065468 -0.906356
vn 0.340565 0.131693 -0.930952
vn 0.001563 0.377461 -0.926024
vn 0.408031 0.876145 0.256672
vn 0.406127 0.877251 0.255914
vn 0.264678 0.922521 0.280894
vn 0.405054 0.877731 0.255966
vn 0.393588 0.883186 0.255090
vn 0.000001 -1.000000 -0.000813
vn 0.000001 -1.000000 -0.000813
vn 0.658129 0.308767 -0.686680
vn 0.658129 0.308767 -0.686680
vn 0.658129 0.308767 -0.686681
vn 0.658129 0.308767 -0.686680
vn 0.933222 -0.049253 -0.355908
vn 0.933222 -0.049253 -0.355908
vn 0.004049 -0.999774 0.020849
vn 0.004049 -0.999774 0.020849
vn 0.024375 0.023294 -0.999431
vn 0.024375 0.023294 -0.999432
vn -0.995844 0.053099 0.073998
vn -0.661784 0.243431 -0.709072
vn -0.660569 0.251601 -0.707351
vn -0.715363 0.000576 -0.698753
vn -0.726400 0.014957 -0.687109
vn -0.699235 -0.020991 -0.714584
vn -0.687787 -0.040356 -0.724790
vn -0.825781 0.173732 -0.536565
s 1
g pCube3
usemtl initialShadingGroup
f 29/1/1 11/58/2 4/52/3
f 11/58/2 12/68/4 4/52/3
f 12/68/4 2/71/5 4/52/3
s 2
f 44/6/6 42/7/7 4/3/8
f 1/66/9 7/9/10 3/10/11
f 4/3/8 3/10/11 7/9/10
s 4
f 23/61/12 26/62/13 9/70/14
f 9/70/14 26/62/13 17/63/15 13/69/16
f 13/69/16 17/63/15 12/4/17
f 12/4/17 17/63/15 1/8/18 2/5/19
f 3/73/20 2/5/19 1/8/18
s 5
f 30/16/21 28/17/22 25/18/23
f 25/18/23 28/17/22 18/19/24
f 18/19/24 28/17/22 6/20/25
f 28/17/22 20/21/26 6/20/25
s 6
f 29/75/27 41/74/28 40/47/29 27/24/30
f 40/47/29 43/48/31 27/24/30
s 7
f 19/26/32 7/9/33 20/21/34
f 7/9/33 6/20/35 20/21/34
s 8
f 10/27/36 8/28/37 15/29/38
f 15/29/38 8/28/37 16/30/39
f 8/28/37 5/31/40 16/30/39
s 9
f 5/31/41 36/32/42 35/33/43 14/65/44 16/30/45
f 24/35/46 23/11/47 10/27/48
f 10/27/48 23/11/47 8/28/49
f 9/13/50 8/28/49 23/11/47
f 33/36/51 39/37/52 11/2/53
f 12/67/54 11/2/53 13/15/55
f 9/13/50 13/15/55 38/38/56 37/39/57
f 11/2/53 39/37/52 38/38/56 13/15/55
f 9/13/50 37/39/57 36/32/42 5/31/41 8/28/49
s off
f 3/10/58 4/3/59 2/72/60
s 12
f 1/66/61 17/14/62 7/9/63
f 17/14/62 18/19/64 7/9/63
f 18/19/64 6/20/65 7/9/63
s 13
f 17/14/66 26/12/67 25/18/68 18/19/69
s 14
f 14/65/70 21/60/71 16/30/72
f 21/60/71 22/41/73 16/30/72
f 22/41/73 15/29/74 16/30/72
s 15
f 27/59/75 28/17/76 22/41/77 21/60/78
s 13
f 24/35/79 30/16/80 23/11/81
f 23/11/81 30/16/80 26/12/67
f 30/16/80 25/18/68 26/12/67
s 15
f 19/26/82 20/21/83 28/17/76 27/59/75
s 6
f 27/24/30 21/40/84 29/75/27
f 21/40/84 14/34/85 29/75/27
f 14/34/85 35/56/86 34/53/87 29/75/27
f 29/75/27 34/53/87 32/43/88
s 5
f 24/35/89 31/44/90 30/16/21
f 10/27/91 15/29/92 24/35/89
f 24/35/89 15/29/92 31/44/90
f 15/29/92 22/41/93 31/44/90
f 22/41/93 28/17/22 31/44/90
f 28/17/22 30/16/21 31/44/90
s 1
f 32/54/94 33/57/95 11/58/2 29/1/1
s off
f 33/36/96 32/55/97 34/42/98 39/37/99
s 9
f 34/42/100 35/33/43 36/32/42 37/39/57 38/38/56 39/37/101
s 1
f 42/51/102 41/22/103 29/1/1 4/52/3
s 6
f 43/48/31 46/49/104 19/64/105 27/24/30
s 2
f 45/46/106 44/6/6 4/3/8 7/9/10
s 7
f 46/45/107 45/46/108 7/9/33 19/26/32
f 40/23/109 42/7/110 44/6/111 43/25/112
f 40/23/109 41/50/113 42/7/110
f 43/25/112 44/6/111 45/46/108 46/45/107
